<svg version="1.1" id="Layer_1" xmlns="http://www.w3.org/2000/svg" xmlns:xlink="http://www.w3.org/1999/xlink" x="0px"
     y="0px"
     width="100%" viewBox="0 0 512 512" enable-background="new 0 0 512 512" xml:space="preserve">
<path fill="#000000" opacity="1.000000" stroke="none"
      d="
M289.000000,513.000000 
	C192.690048,513.000000 96.880096,513.000000 1.035069,513.000000 
	C1.035069,342.398346 1.035069,171.796707 1.035069,1.097524 
	C171.559967,1.097524 342.120026,1.097524 512.840027,1.097524 
	C512.840027,171.666550 512.840027,342.333252 512.840027,513.000000 
	C438.463348,513.000000 363.981659,513.000000 289.000000,513.000000 
M219.928085,487.972290 
	C230.285339,487.926636 240.642609,487.880981 251.928055,487.974396 
	C262.285645,487.927277 272.643219,487.880188 283.929108,487.970520 
	C295.951630,487.924438 307.974182,487.878357 320.925262,487.971558 
	C333.283508,487.926178 345.641785,487.880798 358.928436,487.972778 
	C374.226532,487.981293 389.524658,488.007751 404.822723,487.989685 
	C411.240662,487.982086 413.973572,485.142914 413.995636,478.585510 
	C414.009613,474.428406 414.119232,470.266571 413.957642,466.115723 
	C413.844116,463.199829 414.905151,461.555511 417.356140,459.697876 
	C425.571075,453.471558 433.656799,447.012390 441.259491,440.060028 
	C447.589691,434.271393 453.889313,428.188843 458.924408,421.302094 
	C467.741302,409.242798 475.578339,396.467133 484.153900,383.348969 
	C486.318146,378.823181 489.019165,374.470428 490.544678,369.738678 
	C494.896484,356.240631 498.769958,342.588348 502.998291,328.188904 
	C503.265564,327.603088 503.682587,327.040649 503.778290,326.428040 
	C506.233063,310.711273 507.801361,294.934723 506.966461,278.069458 
	C506.976807,273.434998 507.412628,268.745300 506.821106,264.188995 
	C506.517487,261.850464 504.877075,258.513184 502.985748,257.752167 
	C493.851715,254.076920 484.427032,251.123901 474.716248,247.251724 
	C465.784424,244.304962 456.876495,241.282990 447.914001,238.432632 
	C438.969727,235.588013 429.970764,232.915344 420.326477,229.835236 
	C414.322327,228.426605 413.683899,224.304565 413.866669,218.862976 
	C414.245331,207.587585 413.887939,196.287460 413.969238,184.069107 
	C413.979462,176.312271 414.161407,168.549454 413.892548,160.802307 
	C413.814606,158.555618 412.948944,155.947647 411.556824,154.220856 
	C409.103912,151.178223 405.968140,148.686050 402.835968,145.349457 
	C393.570770,136.197754 384.305603,127.046059 374.773773,117.287224 
	C365.862305,108.492287 356.950836,99.697350 347.778595,90.291069 
	C344.720062,87.229332 341.908264,83.850891 338.520447,81.211861 
	C336.066528,79.300323 332.889587,77.302643 329.964508,77.190903 
	C318.990509,76.771690 307.987488,77.111053 296.067749,77.027412 
	C273.746094,77.016357 251.424454,76.993996 229.102814,77.001755 
	C223.081650,77.003845 219.042969,80.488876 219.030045,86.034615 
	C218.990509,103.021973 219.109222,120.009697 219.020538,137.924896 
	C219.020538,147.512741 219.020538,157.100601 219.020538,166.994904 
	C205.786880,166.994904 193.168335,166.957352 180.550171,167.010559 
	C174.128616,167.037643 170.045593,170.484787 170.027863,176.074020 
	C169.985641,189.382217 170.110977,202.690964 170.024353,216.886017 
	C170.024353,218.775894 170.024353,220.665771 170.024353,222.816864 
	C167.068085,222.945938 164.533356,223.056610 161.070908,223.025970 
	C149.671951,223.016327 138.271805,223.103302 126.874474,222.962234 
	C119.577278,222.871918 117.202896,221.696823 114.015625,232.943436 
	C114.008423,257.864929 113.977989,282.786438 114.000381,307.707916 
	C114.024109,334.121490 114.098030,360.535004 114.009850,387.883118 
	C114.001167,417.183807 113.968513,446.484558 114.034828,475.785065 
	C114.039520,477.856262 114.773277,479.925812 115.041885,482.714905 
	C117.323761,484.476746 119.533409,487.635162 121.900070,487.757568 
	C131.907227,488.275116 141.961105,487.889221 152.926102,487.974579 
	C164.616669,487.928101 176.307220,487.881622 188.926285,487.974518 
	C198.950836,487.927307 208.975403,487.880096 219.928085,487.972290 
M37.925282,219.978943 
	C55.071526,219.984085 72.217850,220.021164 89.363968,219.977234 
	C95.468231,219.961609 98.951073,217.090271 98.963974,211.935806 
	C98.998962,197.956558 98.886658,183.976929 98.973892,169.069839 
	C98.983467,157.811417 99.040688,146.552704 98.976692,135.294708 
	C98.954407,131.375275 97.792236,128.133484 92.559891,127.165421 
	C66.897934,127.109001 41.235832,126.988426 15.574134,127.046745 
	C10.004644,127.059402 7.024797,129.984467 7.022923,135.009018 
	C7.014598,157.337982 7.108977,179.667007 7.018569,202.911087 
	C7.011317,204.891769 6.998028,206.872467 6.997877,208.853149 
	C6.997278,216.709656 10.244726,219.979980 18.191647,219.986786 
	C24.460363,219.992157 30.729174,219.887543 37.925282,219.978943 
M122.925423,111.990730 
	C142.700790,111.993576 162.476212,112.026031 182.251495,111.983070 
	C189.104736,111.968185 193.952026,108.834877 193.956879,104.279045 
	C193.981491,81.184135 193.886841,58.089100 193.973007,34.090946 
	C193.980301,31.757687 194.048828,29.422676 193.982254,27.091526 
	C193.840210,22.117319 190.947006,19.043179 186.036835,19.031157 
	C160.703705,18.969118 135.370285,18.966761 110.037132,19.021725 
	C105.081146,19.032476 102.029465,22.065989 102.024773,27.009167 
	C102.007347,45.338634 102.110107,63.668217 102.021111,82.925278 
	C102.014648,89.901360 102.060478,96.878021 101.981819,103.853294 
	C101.935699,107.943390 103.832161,110.486153 107.829948,110.936333 
	C112.527138,111.465248 117.273102,111.561096 122.925423,111.990730 
z"/>
    <path fill="#F03D29" opacity="1.000000" stroke="none"
          d="
M475.105438,247.914764 
	C484.427032,251.123901 493.851715,254.076920 502.985748,257.752167 
	C504.877075,258.513184 506.517487,261.850464 506.821106,264.188995 
	C507.412628,268.745300 506.976807,273.434998 506.547577,278.559570 
	C504.035553,280.258331 501.842163,281.324280 499.871735,282.707733 
	C496.562469,285.031250 493.395020,287.556763 490.101196,289.576996 
	C490.034546,287.003143 490.034546,284.849579 490.034546,282.115845 
	C488.535461,282.946686 487.359894,283.443085 486.357697,284.176453 
	C463.231567,301.098877 440.093262,318.005219 417.083160,335.084198 
	C415.544800,336.226013 414.279297,338.657532 414.135040,340.582672 
	C413.701996,346.362671 413.887573,352.188995 413.497009,358.072327 
	C411.520966,359.180359 409.889191,360.228973 408.236359,361.243195 
	C404.552429,363.503662 400.858002,365.747070 397.100525,367.533203 
	C397.021606,355.932251 396.742340,344.784851 397.185364,333.666229 
	C397.297089,330.861572 399.006378,327.220581 401.193054,325.544189 
	C415.670013,314.445557 430.470062,303.767883 445.179138,292.972595 
	C456.702423,284.515411 468.246246,276.086243 479.957275,267.515594 
	C474.034302,265.533905 468.520538,263.689117 463.086761,261.520569 
	C464.971344,259.108582 466.742554,256.990326 468.589294,254.940079 
	C470.726685,252.567078 472.930450,250.253906 475.105438,247.914764 
z"/>
    <path fill="#EF3227" opacity="1.000000" stroke="none"
          d="
M397.167847,367.997437 
	C400.858002,365.747070 404.552429,363.503662 408.236359,361.243195 
	C409.889191,360.228973 411.520966,359.180359 413.566833,358.433563 
	C414.045197,359.676910 414.118958,360.634033 414.228546,362.055756 
	C416.596436,360.499664 418.689545,359.245728 420.653564,357.814667 
	C439.749817,343.899811 458.876556,330.025757 477.870667,315.972534 
	C482.996643,312.179962 489.964905,309.722565 489.803833,301.416962 
	C489.730103,297.614166 490.034821,293.804077 490.167877,289.997284 
	C493.395020,287.556763 496.562469,285.031250 499.871735,282.707733 
	C501.842163,281.324280 504.035553,280.258331 506.480316,279.023071 
	C507.801361,294.934723 506.233063,310.711273 503.778290,326.428040 
	C503.682587,327.040649 503.265564,327.603088 502.564575,328.618958 
	C499.189117,331.097229 496.244263,333.140991 493.306335,335.194672 
	C489.590637,337.791992 485.880615,340.397430 482.114014,342.611176 
	C482.771759,339.384552 483.483734,336.546173 484.392853,332.921753 
	C482.213806,334.260376 480.906342,334.939636 479.733826,335.802277 
	C456.850647,352.637695 434.067505,369.612152 410.980072,386.162170 
	C408.708313,387.790649 404.152008,387.885406 401.467072,386.759033 
	C399.334351,385.864258 397.686890,382.152374 397.183746,379.439087 
	C396.499817,375.751068 397.111664,371.822723 397.167847,367.997437 
z"/>
    <path fill="#ED1F24" opacity="1.000000" stroke="none"
          d="
M483.825867,383.991608 
	C475.578339,396.467133 467.741302,409.242798 458.924408,421.302094 
	C453.889313,428.188843 447.589691,434.271393 441.259491,440.060028 
	C433.656799,447.012390 425.571075,453.471558 417.356140,459.697876 
	C414.905151,461.555511 413.844116,463.199829 413.957642,466.115723 
	C414.119232,470.266571 414.009613,474.428406 413.995636,478.585510 
	C413.973572,485.142914 411.240662,487.982086 404.822723,487.989685 
	C389.524658,488.007751 374.226532,487.981293 358.489716,487.552612 
	C359.438599,485.376434 360.695404,483.494446 362.240295,481.889832 
	C365.751556,478.242950 369.404388,474.732361 373.463837,471.097534 
	C381.514008,471.028687 389.099976,471.028687 396.608673,471.028687 
	C397.482086,462.332794 397.473480,462.345917 390.620758,457.852173 
	C389.965515,457.422485 389.503876,456.697571 389.136108,455.823120 
	C393.582794,452.008392 397.845764,448.480255 402.413025,445.085449 
	C406.564270,448.535889 408.784088,444.783630 410.910217,442.916382 
	C421.386597,433.715698 431.632965,424.253082 442.201416,415.069336 
	C444.030334,414.594727 445.913574,414.280182 447.159821,413.218140 
	C457.511627,404.396301 467.695251,395.376892 478.070312,386.582947 
	C479.612793,385.275543 481.889069,384.833832 483.825867,383.991608 
z"/>
    <path fill="#FAA83A" opacity="1.000000" stroke="none"
          d="
M102.167725,81.997757 
	C102.110107,63.668217 102.007347,45.338634 102.024773,27.009167 
	C102.029465,22.065989 105.081146,19.032476 110.037132,19.021725 
	C135.370285,18.966761 160.703705,18.969118 186.036835,19.031157 
	C190.947006,19.043179 193.840210,22.117319 193.982254,27.091526 
	C194.048828,29.422676 193.980301,31.757687 193.552795,34.569267 
	C190.545715,36.743294 188.039841,38.583260 185.348969,40.093670 
	C182.719864,41.569408 179.901993,42.708809 177.097382,43.547386 
	C177.027771,40.834930 177.027771,38.570942 177.027771,36.305679 
	C157.386124,36.305679 138.332901,36.305679 118.831665,36.305679 
	C118.831665,49.742085 118.831665,62.870285 118.502533,75.914398 
	C115.237457,73.695717 113.016373,74.401131 110.408058,76.882721 
	C108.114868,79.064491 104.948463,80.328453 102.167725,81.997757 
z"/>
    <path fill="#FAA539" opacity="1.000000" stroke="none"
          d="
M7.166218,201.996002 
	C7.108977,179.667007 7.014598,157.337982 7.022923,135.009018 
	C7.024797,129.984467 10.004644,127.059402 15.574134,127.046745 
	C41.235832,126.988426 66.897934,127.109001 92.725266,127.868355 
	C90.923576,130.716400 89.014473,132.918472 86.975655,134.993057 
	C84.031906,137.988449 80.994072,140.891403 77.532639,143.904221 
	C59.476097,143.974655 41.883293,143.974655 23.833673,143.974655 
	C23.833673,160.067184 23.833673,175.531616 23.506245,191.079422 
	C21.170486,192.550598 19.174652,193.956909 17.151005,195.322006 
	C13.832245,197.560745 10.495421,199.772720 7.166218,201.996002 
z"/>
    <path fill="#F88735" opacity="1.000000" stroke="none"
          d="
M170.168640,215.999481 
	C170.110977,202.690964 169.985641,189.382217 170.027863,176.074020 
	C170.045593,170.484787 174.128616,167.037643 180.550171,167.010559 
	C193.168335,166.957352 205.786880,166.994904 219.020538,166.994904 
	C219.020538,157.100601 219.020538,147.512741 219.450424,137.437042 
	C221.965424,135.753586 224.154999,134.706436 226.112289,133.329208 
	C229.429901,130.994812 232.600906,128.452072 235.906525,126.460762 
	C235.984558,143.211426 236.000214,159.498230 235.988586,175.785034 
	C235.984756,181.150650 233.218109,183.971848 227.952911,183.987732 
	C219.310974,184.013824 210.668884,183.997238 202.026871,183.998169 
	C197.108917,183.998688 192.190948,183.998260 186.832413,183.998260 
	C186.832413,191.089386 186.832413,197.544510 186.507629,204.082031 
	C180.844788,208.109451 175.506714,212.054474 170.168640,215.999481 
z"/>
    <path fill="#FA9C38" opacity="1.000000" stroke="none"
          d="
M177.166977,43.995857 
	C179.901993,42.708809 182.719864,41.569408 185.348969,40.093670 
	C188.039841,38.583260 190.545715,36.743294 193.483276,35.020844 
	C193.886841,58.089100 193.981491,81.184135 193.956879,104.279045 
	C193.952026,108.834877 189.104736,111.968185 182.251495,111.983070 
	C162.476212,112.026031 142.700790,111.993576 122.464096,111.537109 
	C122.927155,109.280449 123.540680,107.204384 124.837227,105.728241 
	C128.057465,102.061943 131.589325,98.669365 135.459808,95.092880 
	C149.520370,95.018906 163.117142,95.018906 177.166977,95.018906 
	C177.166977,77.595642 177.166977,60.795750 177.166977,43.995857 
z"/>
    <path fill="#F35A2E" opacity="1.000000" stroke="none"
          d="
M413.833252,184.997528 
	C413.887939,196.287460 414.245331,207.587585 413.866669,218.862976 
	C413.683899,224.304565 414.322327,228.426605 420.576477,230.321030 
	C419.919556,231.737106 419.007263,232.662216 418.106750,233.598648 
	C415.056732,236.770233 412.010834,239.945801 408.531799,243.067444 
	C401.853546,244.650986 395.517273,246.007416 389.377075,247.975449 
	C371.209076,253.798660 353.118500,259.863434 335.024628,265.484192 
	C335.606812,264.161377 335.953796,262.951050 336.749756,262.251984 
	C343.597382,256.238312 350.582916,250.380630 357.377686,244.308945 
	C358.585602,243.229553 359.101379,241.375595 360.127472,239.553421 
	C371.385742,235.548767 382.400085,231.694443 393.556915,228.309753 
	C396.491882,227.419342 397.048157,226.066208 397.036682,223.447220 
	C396.996643,214.297531 397.111420,205.147171 397.492310,195.915527 
	C403.155914,192.221832 408.494568,188.609680 413.833252,184.997528 
z"/>
    <path fill="#F88F36" opacity="1.000000" stroke="none"
          d="
M235.833542,125.996902 
	C232.600906,128.452072 229.429901,130.994812 226.112289,133.329208 
	C224.154999,134.706436 221.965424,135.753586 219.523361,136.973236 
	C219.109222,120.009697 218.990509,103.021973 219.030045,86.034615 
	C219.042969,80.488876 223.081650,77.003845 229.102814,77.001755 
	C251.424454,76.993996 273.746094,77.016357 296.446198,77.418663 
	C295.388519,79.098129 293.913483,80.345825 292.523621,81.682152 
	C288.330078,85.714195 284.169617,89.780670 279.532379,93.903107 
	C264.811829,93.972488 250.555161,93.972488 235.833542,93.972488 
	C235.833542,105.071007 235.833542,115.533958 235.833542,125.996902 
z"/>
    <path fill="#F56F31" opacity="1.000000" stroke="none"
          d="
M375.040436,117.894348 
	C384.305603,127.046059 393.570770,136.197754 402.607025,145.684845 
	C400.489655,146.983902 398.355743,147.649429 396.757385,148.965408 
	C391.281525,153.473709 385.944244,158.155167 380.658905,162.887634 
	C378.626465,164.707458 376.875549,166.841690 374.532349,168.901154 
	C359.996521,168.980392 345.924591,168.964859 331.852936,169.017471 
	C327.463074,169.033890 324.293121,167.399872 323.193939,162.890533 
	C324.970978,161.704010 326.420685,160.646866 327.898346,159.630386 
	C331.630432,157.063080 335.375122,154.514084 339.575958,151.973633 
	C354.514282,151.989517 368.991455,151.989517 383.468597,151.989517 
	C383.770081,151.395355 384.071564,150.801178 384.373047,150.207016 
	C377.568054,143.848328 370.763031,137.489639 363.989014,130.762695 
	C365.035309,129.017746 365.943878,127.544128 367.087677,126.284019 
	C369.677002,123.431541 372.382294,120.684341 375.040436,117.894348 
z"/>
    <path fill="#F67A33" opacity="1.000000" stroke="none"
          d="
M339.114777,151.957764 
	C335.375122,154.514084 331.630432,157.063080 327.898346,159.630386 
	C326.420685,160.646866 324.970978,161.704010 322.840363,162.641907 
	C322.170380,146.026093 322.168549,129.511017 322.490479,112.915245 
	C328.621124,107.979530 334.471252,103.174995 340.215759,98.247314 
	C342.928040,95.920715 345.437836,93.358093 348.039368,90.902420 
	C356.950836,99.697350 365.862305,108.492287 374.907104,117.590782 
	C372.382294,120.684341 369.677002,123.431541 367.087677,126.284019 
	C365.943878,127.544128 365.035309,129.017746 363.679565,130.625290 
	C355.518433,122.943184 347.697723,115.030205 339.114777,106.346016 
	C339.114777,122.510002 339.114777,137.233887 339.114777,151.957764 
z"/>
    <path fill="#F35A2E" opacity="1.000000" stroke="none"
          d="
M115.168030,481.996155 
	C114.773277,479.925812 114.039520,477.856262 114.034828,475.785065 
	C113.968513,446.484558 114.001167,417.183807 114.291443,387.421326 
	C114.573036,386.959503 114.996109,386.961945 115.000320,387.419739 
	C115.012589,390.912506 115.020645,393.947479 115.020393,397.452911 
	C115.012093,412.468140 115.012093,427.012909 115.012093,441.557709 
	C115.680687,441.730286 116.349289,441.902863 117.017883,442.075470 
	C121.894234,437.561890 128.849945,435.269653 131.506165,427.934143 
	C146.979019,428.041962 161.987823,428.104370 176.963440,428.507935 
	C175.141434,430.661072 173.187592,432.340302 171.600021,434.314148 
	C168.760681,437.844299 162.951553,438.960388 162.532440,444.900513 
	C151.823792,444.968689 141.579178,444.968689 131.113113,444.968689 
	C131.113113,454.060791 131.113113,462.509521 130.769623,471.034302 
	C129.102661,472.084717 127.793098,473.078644 126.453094,474.029694 
	C122.698120,476.694611 118.930603,479.341888 115.168030,481.996155 
z"/>
    <path fill="#F99537" opacity="1.000000" stroke="none"
          d="
M98.832748,169.997452 
	C98.886658,183.976929 98.998962,197.956558 98.963974,211.935806 
	C98.951073,217.090271 95.468231,219.961609 89.363968,219.977234 
	C72.217850,220.021164 55.071526,219.984085 37.592564,219.600891 
	C38.515354,218.474014 39.931515,217.904144 40.999008,216.945877 
	C46.050621,212.411072 51.006962,207.770126 56.461014,203.093582 
	C65.184380,203.020142 73.443985,203.020142 82.158958,203.020142 
	C82.158958,196.260651 82.158958,190.128983 82.467918,183.880615 
	C83.725182,182.436264 84.577980,181.026230 85.639130,179.795898 
	C89.299088,175.552460 92.814346,171.078171 98.832748,169.997452 
z"/>
    <path fill="#EE2625" opacity="1.000000" stroke="none"
          d="
M483.989868,383.670288 
	C481.889069,384.833832 479.612793,385.275543 478.070312,386.582947 
	C467.695251,395.376892 457.511627,404.396301 447.159821,413.218140 
	C445.913574,414.280182 444.030334,414.594727 442.339905,414.767151 
	C452.152344,403.590820 460.523895,391.729370 466.912292,378.701477 
	C472.602539,367.097412 477.128418,354.922394 482.168152,342.999390 
	C485.880615,340.397430 489.590637,337.791992 493.306335,335.194672 
	C496.244263,333.140991 499.189117,331.097229 502.481262,329.022888 
	C498.769958,342.588348 494.896484,356.240631 490.544678,369.738678 
	C489.019165,374.470428 486.318146,378.823181 483.989868,383.670288 
z"/>
    <path fill="#F78535" opacity="1.000000" stroke="none"
          d="
M347.908997,90.596741 
	C345.437836,93.358093 342.928040,95.920715 340.215759,98.247314 
	C334.471252,103.174995 328.621124,107.979530 322.421509,112.451530 
	C322.028717,106.139824 322.028717,100.211143 322.028717,93.833725 
	C307.584259,93.833725 293.790253,93.833725 279.996277,93.833725 
	C284.169617,89.780670 288.330078,85.714195 292.523621,81.682152 
	C293.913483,80.345825 295.388519,79.098129 296.910004,77.488014 
	C307.987488,77.111053 318.990509,76.771690 329.964508,77.190903 
	C332.889587,77.302643 336.066528,79.300323 338.520447,81.211861 
	C341.908264,83.850891 344.720062,87.229332 347.908997,90.596741 
z"/>
    <path fill="#F24D2B" opacity="1.000000" stroke="none"
          d="
M408.963379,243.119858 
	C412.010834,239.945801 415.056732,236.770233 418.106750,233.598648 
	C419.007263,232.662216 419.919556,231.737106 420.911102,230.487061 
	C429.970764,232.915344 438.969727,235.588013 447.914001,238.432632 
	C456.876495,241.282990 465.784424,244.304962 474.910828,247.583252 
	C472.930450,250.253906 470.726685,252.567078 468.589294,254.940079 
	C466.742554,256.990326 464.971344,259.108582 462.716034,261.465515 
	C444.497986,255.529480 426.730682,249.324677 408.963379,243.119858 
z"/>
    <path fill="#F88735" opacity="1.000000" stroke="none"
          d="
M114.146851,232.016708 
	C117.202896,221.696823 119.577278,222.871918 126.874474,222.962234 
	C138.271805,223.103302 149.671951,223.016327 161.421738,223.402954 
	C160.535477,224.842453 159.271683,225.875626 158.066010,226.972672 
	C153.367493,231.247986 148.687363,235.543518 143.539597,239.902222 
	C139.145493,239.972900 135.212189,239.972900 130.831131,239.972900 
	C130.831131,245.402771 130.831131,250.200912 130.481186,255.024414 
	C125.510918,258.269928 120.890594,261.490112 115.002090,265.594177 
	C115.002090,261.686554 115.065086,259.267761 114.990639,256.853241 
	C114.735374,248.573593 114.431931,240.295425 114.146851,232.016708 
z"/>
    <path fill="#F4652F" opacity="1.000000" stroke="none"
          d="
M374.996368,168.832657 
	C376.875549,166.841690 378.626465,164.707458 380.658905,162.887634 
	C385.944244,158.155167 391.281525,153.473709 396.757385,148.965408 
	C398.355743,147.649429 400.489655,146.983902 402.748169,145.991821 
	C405.968140,148.686050 409.103912,151.178223 411.556824,154.220856 
	C412.948944,155.947647 413.814606,158.555618 413.892548,160.802307 
	C414.161407,168.549454 413.979462,176.312271 413.901245,184.533325 
	C408.494568,188.609680 403.155914,192.221832 397.424286,195.451355 
	C397.031311,186.481659 397.031311,177.894592 397.031311,168.832657 
	C389.247467,168.832657 382.121918,168.832657 374.996368,168.832657 
z"/>
    <path fill="#F98132" opacity="1.000000" stroke="none"
          d="
M144.000397,239.831528 
	C148.687363,235.543518 153.367493,231.247986 158.066010,226.972672 
	C159.271683,225.875626 160.535477,224.842453 161.885590,223.473602 
	C164.533356,223.056610 167.068085,222.945938 170.024353,222.816864 
	C170.024353,220.665771 170.024353,218.775894 170.096497,216.442749 
	C175.506714,212.054474 180.844788,208.109451 186.579666,204.545792 
	C186.983109,213.556412 187.057846,222.186386 186.971802,230.814728 
	C186.917007,236.309357 183.325516,239.944458 177.842545,239.965607 
	C166.562164,240.009094 155.281143,239.886047 144.000397,239.831528 
z"/>
    <path fill="#FA9C38" opacity="1.000000" stroke="none"
          d="
M55.997261,203.167023 
	C51.006962,207.770126 46.050621,212.411072 40.999008,216.945877 
	C39.931515,217.904144 38.515354,218.474014 37.128895,219.527313 
	C30.729174,219.887543 24.460363,219.992157 18.191647,219.986786 
	C10.244726,219.979980 6.997278,216.709656 6.997877,208.853149 
	C6.998028,206.872467 7.011317,204.891769 7.092393,202.453552 
	C10.495421,199.772720 13.832245,197.560745 17.151005,195.322006 
	C19.174652,193.956909 21.170486,192.550598 23.580088,191.537811 
	C23.981361,195.516510 23.981361,199.120209 23.981361,203.167023 
	C35.066277,203.167023 45.531769,203.167023 55.997261,203.167023 
z"/>
    <path fill="#FA9C38" opacity="1.000000" stroke="none"
          d="
M98.903320,169.533646 
	C92.814346,171.078171 89.299088,175.552460 85.639130,179.795898 
	C84.577980,181.026230 83.725182,182.436264 82.398270,183.416687 
	C82.019669,170.099274 82.019669,157.129105 82.019669,144.199829 
	C80.289627,144.042435 79.143005,143.938110 77.996384,143.833786 
	C80.994072,140.891403 84.031906,137.988449 86.975655,134.993057 
	C89.014473,132.918472 90.923576,130.716400 92.966995,128.228668 
	C97.792236,128.133484 98.954407,131.375275 98.976692,135.294708 
	C99.040688,146.552704 98.983467,157.811417 98.903320,169.533646 
z"/>
    <path fill="#F98132" opacity="1.000000" stroke="none"
          d="
M114.081238,232.480072 
	C114.431931,240.295425 114.735374,248.573593 114.990639,256.853241 
	C115.065086,259.267761 115.002090,261.686554 115.002090,265.594177 
	C120.890594,261.490112 125.510918,258.269928 130.553360,255.488205 
	C130.927490,267.282837 130.879486,278.639038 130.506104,290.078308 
	C126.293411,293.209045 122.158913,296.000519 118.622963,299.412292 
	C116.852821,301.120300 115.212059,303.938385 115.159920,306.290924 
	C114.844566,320.521423 115.005089,334.762543 115.005798,349.468750 
	C115.002090,362.278900 114.999100,374.620422 114.996109,386.961945 
	C114.996109,386.961945 114.573036,386.959503 114.361526,386.954041 
	C114.098030,360.535004 114.024109,334.121490 114.000381,307.707916 
	C113.977989,282.786438 114.008423,257.864929 114.081238,232.480072 
z"/>
    <path fill="#FAA539" opacity="1.000000" stroke="none"
          d="
M134.996033,95.166855 
	C131.589325,98.669365 128.057465,102.061943 124.837227,105.728241 
	C123.540680,107.204384 122.927155,109.280449 122.000336,111.464111 
	C117.273102,111.561096 112.527138,111.465248 107.829948,110.936333 
	C103.832161,110.486153 101.935699,107.943390 101.981819,103.853294 
	C102.060478,96.878021 102.014648,89.901360 102.094414,82.461517 
	C104.948463,80.328453 108.114868,79.064491 110.408058,76.882721 
	C113.016373,74.401131 115.237457,73.695717 118.575897,76.377884 
	C118.978386,82.856216 118.978386,88.786980 118.978386,95.166862 
	C124.728516,95.166862 129.862274,95.166862 134.996033,95.166855 
z"/>
    <path fill="#F2512C" opacity="1.000000" stroke="none"
          d="
M115.104965,482.355530 
	C118.930603,479.341888 122.698120,476.694611 126.453094,474.029694 
	C127.793098,473.078644 129.102661,472.084717 131.230743,471.050598 
	C144.023132,471.049774 156.010880,471.108704 167.912201,471.487000 
	C167.200500,472.551544 166.628067,473.349854 165.941452,474.033417 
	C161.307129,478.647064 156.648605,483.236420 151.997910,487.833618 
	C141.961105,487.889221 131.907227,488.275116 121.900070,487.757568 
	C119.533409,487.635162 117.323761,484.476746 115.104965,482.355530 
z"/>
    <path fill="#EE2625" opacity="1.000000" stroke="none"
          d="
M372.999664,471.166351 
	C369.404388,474.732361 365.751556,478.242950 362.240295,481.889832 
	C360.695404,483.494446 359.438599,485.376434 358.025513,487.483948 
	C345.641785,487.880798 333.283508,487.926178 320.486694,487.552216 
	C322.356964,484.427124 324.570007,481.631531 327.000854,479.040283 
	C329.557739,476.314697 332.323059,473.784607 335.461609,471.099396 
	C348.283813,471.075226 360.641724,471.120789 372.999664,471.166351 
z"/>
    <path fill="#EF3227" opacity="1.000000" stroke="none"
          d="
M334.997314,471.169128 
	C332.323059,473.784607 329.557739,476.314697 327.000854,479.040283 
	C324.570007,481.631531 322.356964,484.427124 320.022430,487.482574 
	C307.974182,487.878357 295.951630,487.924438 283.546082,487.578430 
	C284.854736,485.406799 286.568848,483.647949 288.233246,481.843292 
	C291.503326,478.297668 294.745697,474.726593 298.463867,471.097382 
	C310.951202,471.075531 322.974274,471.122314 334.997314,471.169128 
z"/>
    <path fill="#F1492B" opacity="1.000000" stroke="none"
          d="
M152.462006,487.904114 
	C156.648605,483.236420 161.307129,478.647064 165.941452,474.033417 
	C166.628067,473.349854 167.200500,472.551544 168.376221,471.416412 
	C180.284073,471.073059 191.641495,471.119659 202.913269,471.486023 
	C199.446793,474.937897 195.926727,477.936218 192.738297,481.253296 
	C190.883362,483.183136 189.560226,485.624176 187.997787,487.835175 
	C176.307220,487.881622 164.616669,487.928101 152.462006,487.904114 
z"/>
    <path fill="#EF3428" opacity="1.000000" stroke="none"
          d="
M297.999573,471.166046 
	C294.745697,474.726593 291.503326,478.297668 288.233246,481.843292 
	C286.568848,483.647949 284.854736,485.406799 283.081970,487.509705 
	C272.643219,487.880188 262.285645,487.927277 251.490723,487.555359 
	C252.014603,485.880768 252.866028,484.519318 253.956726,483.388733 
	C257.927795,479.272278 261.978882,475.233002 266.463806,471.095093 
	C277.285065,471.072388 287.642334,471.119232 297.999573,471.166046 
z"/>
    <path fill="#F03D29" opacity="1.000000" stroke="none"
          d="
M265.999817,471.164642 
	C261.978882,475.233002 257.927795,479.272278 253.956726,483.388733 
	C252.866028,484.519318 252.014603,485.880768 251.026611,487.485779 
	C240.642609,487.880981 230.285339,487.926636 219.538788,487.566742 
	C220.316437,485.631958 221.352463,483.977203 222.675323,482.597443 
	C226.386536,478.726562 230.216049,474.969116 234.463043,471.097260 
	C245.284729,471.073273 255.642273,471.118958 265.999817,471.164642 
z"/>
    <path fill="#F0442A" opacity="1.000000" stroke="none"
          d="
M233.998901,471.166931 
	C230.216049,474.969116 226.386536,478.726562 222.675323,482.597443 
	C221.352463,483.977203 220.316437,485.631958 219.074722,487.497040 
	C208.975403,487.880096 198.950836,487.927307 188.462036,487.904846 
	C189.560226,485.624176 190.883362,483.183136 192.738297,481.253296 
	C195.926727,477.936218 199.446793,474.937897 203.377411,471.416199 
	C213.951096,471.073425 223.974991,471.120178 233.998901,471.166931 
z"/>
    <path fill="#000000" opacity="1.000000" stroke="none"
          d="
M408.531799,243.067444 
	C426.730682,249.324677 444.497986,255.529480 462.636017,261.789307 
	C468.520538,263.689117 474.034302,265.533905 479.957275,267.515594 
	C468.246246,276.086243 456.702423,284.515411 445.179138,292.972595 
	C430.470062,303.767883 415.670013,314.445557 401.193054,325.544189 
	C399.006378,327.220581 397.297089,330.861572 397.185364,333.666229 
	C396.742340,344.784851 397.021606,355.932251 397.100525,367.533203 
	C397.111664,371.822723 396.499817,375.751068 397.183746,379.439087 
	C397.686890,382.152374 399.334351,385.864258 401.467072,386.759033 
	C404.152008,387.885406 408.708313,387.790649 410.980072,386.162170 
	C434.067505,369.612152 456.850647,352.637695 479.733826,335.802277 
	C480.906342,334.939636 482.213806,334.260376 484.392853,332.921753 
	C483.483734,336.546173 482.771759,339.384552 482.113983,342.611176 
	C477.128418,354.922394 472.602539,367.097412 466.912292,378.701477 
	C460.523895,391.729370 452.152344,403.590820 442.098938,414.580719 
	C431.632965,424.253082 421.386597,433.715698 410.910217,442.916382 
	C408.784088,444.783630 406.564270,448.535889 402.262756,444.773193 
	C393.575348,437.535797 385.342468,430.743958 376.966431,423.646851 
	C369.897491,415.190002 362.971741,407.038422 355.902771,398.573608 
	C350.189117,388.805054 344.618744,379.349731 339.014771,369.528259 
	C335.336456,359.735596 331.691711,350.309082 328.023895,340.482880 
	C327.330353,337.285736 326.607971,334.499512 325.999878,331.688568 
	C324.581207,325.130798 323.217560,318.561157 321.899780,311.546509 
	C321.589294,301.063751 321.210663,291.030731 320.901093,280.543243 
	C320.970154,276.833191 320.970154,273.577667 320.970154,270.701508 
	C325.976257,268.964294 330.486938,267.399017 334.997620,265.833710 
	C353.118500,259.863434 371.209076,253.798660 389.377075,247.975449 
	C395.517273,246.007416 401.853546,244.650986 408.531799,243.067444 
z"/>
    <path fill="#000000" opacity="1.000000" stroke="none"
          d="
M490.101196,289.576996 
	C490.034821,293.804077 489.730103,297.614166 489.803833,301.416962 
	C489.964905,309.722565 482.996643,312.179962 477.870667,315.972534 
	C458.876556,330.025757 439.749817,343.899811 420.653564,357.814667 
	C418.689545,359.245728 416.596436,360.499664 414.228546,362.055756 
	C414.118958,360.634033 414.045197,359.676910 413.901581,358.358521 
	C413.887573,352.188995 413.701996,346.362671 414.135040,340.582672 
	C414.279297,338.657532 415.544800,336.226013 417.083160,335.084198 
	C440.093262,318.005219 463.231567,301.098877 486.357697,284.176453 
	C487.359894,283.443085 488.535461,282.946686 490.034546,282.115845 
	C490.034546,284.849579 490.034546,287.003143 490.101196,289.576996 
z"/>
    <path fill="#000000" opacity="1.000000" stroke="none"
          d="
M234.463043,471.097260 
	C223.974991,471.120178 213.951096,471.073425 203.463043,471.096466 
	C191.641495,471.119659 180.284073,471.073059 168.462646,471.097046 
	C156.010880,471.108704 144.023132,471.049774 131.574249,470.974548 
	C131.113113,462.509521 131.113113,454.060791 131.113113,444.968689 
	C141.579178,444.968689 151.823792,444.968689 162.996613,444.971558 
	C177.282455,444.927429 190.640091,444.880402 204.461853,444.903870 
	C220.284027,444.927490 235.642059,444.880585 251.464081,444.904114 
	C268.618713,444.928009 285.309418,444.881531 302.464172,444.904572 
	C320.285095,444.927460 337.641907,444.880859 355.462708,444.903687 
	C358.892029,444.982513 361.863800,445.120972 364.821381,444.974396 
	C370.998718,444.668182 376.803711,444.712799 381.201477,450.408417 
	C383.085785,452.848816 386.327423,454.241180 388.952362,456.109711 
	C389.503876,456.697571 389.965515,457.422485 390.620758,457.852173 
	C397.473480,462.345917 397.482086,462.332794 396.608673,471.028687 
	C389.099976,471.028687 381.514008,471.028687 373.463837,471.097534 
	C360.641724,471.120789 348.283813,471.075226 335.461609,471.099396 
	C322.974274,471.122314 310.951202,471.075531 298.463867,471.097382 
	C287.642334,471.119232 277.285065,471.072388 266.463806,471.095093 
	C255.642273,471.118958 245.284729,471.073273 234.463043,471.097260 
z"/>
    <path fill="#EE2926" opacity="1.000000" stroke="none"
          d="
M389.136108,455.823120 
	C386.327423,454.241180 383.085785,452.848816 381.201477,450.408417 
	C376.803711,444.712799 370.998718,444.668182 364.821381,444.974396 
	C361.863800,445.120972 358.892029,444.982513 355.543793,444.580933 
	C362.477142,437.443207 369.793396,430.697662 377.109619,423.952087 
	C385.342468,430.743958 393.575348,437.535797 401.958496,444.639893 
	C397.845764,448.480255 393.582794,452.008392 389.136108,455.823120 
z"/>
    <path fill="#000000" opacity="1.000000" stroke="none"
          d="
M135.459808,95.092880 
	C129.862274,95.166862 124.728516,95.166862 118.978386,95.166862 
	C118.978386,88.786980 118.978386,82.856216 118.905029,76.461975 
	C118.831665,62.870285 118.831665,49.742085 118.831665,36.305679 
	C138.332901,36.305679 157.386124,36.305679 177.027771,36.305679 
	C177.027771,38.570942 177.027771,40.834930 177.097382,43.547386 
	C177.166977,60.795750 177.166977,77.595642 177.166977,95.018906 
	C163.117142,95.018906 149.520370,95.018906 135.459808,95.092880 
z"/>
    <path fill="#000000" opacity="1.000000" stroke="none"
          d="
M77.532639,143.904221 
	C79.143005,143.938110 80.289627,144.042435 82.019669,144.199829 
	C82.019669,157.129105 82.019669,170.099274 82.089310,183.533386 
	C82.158958,190.128983 82.158958,196.260651 82.158958,203.020142 
	C73.443985,203.020142 65.184380,203.020142 56.461014,203.093582 
	C45.531769,203.167023 35.066277,203.167023 23.981361,203.167023 
	C23.981361,199.120209 23.981361,195.516510 23.907516,191.454437 
	C23.833673,175.531616 23.833673,160.067184 23.833673,143.974655 
	C41.883293,143.974655 59.476097,143.974655 77.532639,143.904221 
z"/>
    <path fill="#000000" opacity="1.000000" stroke="none"
          d="
M130.831497,289.995209 
	C130.879486,278.639038 130.927490,267.282837 130.903305,255.462860 
	C130.831131,250.200912 130.831131,245.402771 130.831131,239.972900 
	C135.212189,239.972900 139.145493,239.972900 143.539597,239.902222 
	C155.281143,239.886047 166.562164,240.009094 177.842545,239.965607 
	C183.325516,239.944458 186.917007,236.309357 186.971802,230.814728 
	C187.057846,222.186386 186.983109,213.556412 186.904449,204.463379 
	C186.832413,197.544510 186.832413,191.089386 186.832413,183.998260 
	C192.190948,183.998260 197.108917,183.998688 202.026871,183.998169 
	C210.668884,183.997238 219.310974,184.013824 227.952911,183.987732 
	C233.218109,183.971848 235.984756,181.150650 235.988586,175.785034 
	C236.000214,159.498230 235.984558,143.211426 235.906525,126.460770 
	C235.833542,115.533958 235.833542,105.071007 235.833542,93.972488 
	C250.555161,93.972488 264.811829,93.972488 279.532379,93.903107 
	C293.790253,93.833725 307.584259,93.833725 322.028717,93.833725 
	C322.028717,100.211143 322.028717,106.139824 322.097717,112.532219 
	C322.168549,129.511017 322.170380,146.026093 322.525787,162.789795 
	C324.293121,167.399872 327.463074,169.033890 331.852936,169.017471 
	C345.924591,168.964859 359.996521,168.980392 374.532349,168.901154 
	C382.121918,168.832657 389.247467,168.832657 397.031311,168.832657 
	C397.031311,177.894592 397.031311,186.481659 397.099335,195.532898 
	C397.111420,205.147171 396.996643,214.297531 397.036682,223.447220 
	C397.048157,226.066208 396.491882,227.419342 393.556915,228.309753 
	C382.400085,231.694443 371.385742,235.548767 359.736877,239.605347 
	C342.221558,245.660614 325.227203,251.170990 308.432129,257.233490 
	C306.402405,257.966156 304.318817,261.625488 304.199066,264.025116 
	C303.751587,272.994171 304.110718,282.003448 304.096802,291.457642 
	C304.979309,301.624390 305.932343,311.331146 306.932220,321.468292 
	C309.273895,331.612640 311.568726,341.326599 313.920746,351.431152 
	C317.946747,361.561340 321.915527,371.300903 325.935608,381.404846 
	C331.715332,391.160126 337.443756,400.551025 343.193237,410.282532 
	C347.706055,416.161591 352.197845,421.699951 357.441010,428.164795 
	C343.167114,428.164795 330.083008,428.164795 316.534546,428.097473 
	C299.713074,428.075684 283.355957,428.121246 266.534424,428.099487 
	C250.712311,428.077484 235.354599,428.122742 219.532837,428.099915 
	C205.044724,428.076782 191.020676,428.121765 176.996628,428.166748 
	C161.987823,428.104370 146.979019,428.041962 131.485931,427.473022 
	C130.944504,413.642151 130.887375,400.317841 130.898834,386.529724 
	C130.921570,370.041870 130.875717,354.017792 130.898682,337.530029 
	C130.922134,321.375977 130.876816,305.685577 130.831497,289.995209 
M208.071701,390.029388 
	C191.498795,390.029388 174.925888,390.029388 158.323547,390.029388 
	C158.323547,395.942047 158.323547,401.322632 158.323547,406.836639 
	C169.433655,406.836639 180.217117,406.836639 191.928192,406.977722 
	C206.828842,406.977722 221.729477,406.977722 236.675873,406.977722 
	C236.675873,401.026703 236.675873,395.647552 236.675873,390.165680 
	C227.235352,390.165680 218.117798,390.165680 208.071701,390.029388 
z"/>
    <path fill="#F35F2E" opacity="1.000000" stroke="none"
          d="
M304.167297,290.997620 
	C304.110718,282.003448 303.751587,272.994171 304.199066,264.025116 
	C304.318817,261.625488 306.402405,257.966156 308.432129,257.233490 
	C325.227203,251.170990 342.221558,245.660614 359.546204,239.931213 
	C359.101379,241.375595 358.585602,243.229553 357.377686,244.308945 
	C350.582916,250.380630 343.597382,256.238312 336.749756,262.251984 
	C335.953796,262.951050 335.606812,264.161377 335.024628,265.484192 
	C330.486938,267.399017 325.976257,268.964294 320.970154,270.701508 
	C320.970154,273.577667 320.970154,276.833191 320.544281,280.568298 
	C317.912384,282.364960 315.682526,283.643982 313.506104,285.008209 
	C310.372772,286.972198 307.278320,288.998138 304.167297,290.997620 
z"/>
    <path fill="#000000" opacity="1.000000" stroke="none"
          d="
M339.575958,151.973633 
	C339.114777,137.233887 339.114777,122.510002 339.114777,106.346016 
	C347.697723,115.030205 355.518433,122.943184 363.648590,130.993561 
	C370.763031,137.489639 377.568054,143.848328 384.373047,150.207016 
	C384.071564,150.801178 383.770081,151.395355 383.468597,151.989517 
	C368.991455,151.989517 354.514282,151.989517 339.575958,151.973633 
z"/>
    <path fill="#F56F31" opacity="1.000000" stroke="none"
          d="
M130.829880,337.993744 
	C130.875717,354.017792 130.921570,370.041870 130.573441,386.612915 
	C128.542679,388.267944 126.926292,389.407623 125.264816,390.477264 
	C121.865616,392.665619 118.442169,394.816315 115.028702,396.982483 
	C115.020645,393.947479 115.012589,390.912506 115.000320,387.419739 
	C114.999100,374.620422 115.002090,362.278900 115.341675,349.394257 
	C116.753548,348.105927 117.840569,347.377045 118.901985,346.612579 
	C122.882477,343.745911 126.854614,340.867676 130.829880,337.993744 
z"/>
    <path fill="#F2512C" opacity="1.000000" stroke="none"
          d="
M176.963440,428.507935 
	C191.020676,428.121765 205.044724,428.076782 219.451202,428.423218 
	C218.718323,429.988403 217.625275,431.184326 216.483734,432.332062 
	C212.330536,436.507904 208.161087,440.667603 203.997742,444.833374 
	C190.640091,444.880402 177.282455,444.927429 163.460632,444.903381 
	C162.951553,438.960388 168.760681,437.844299 171.600021,434.314148 
	C173.187592,432.340302 175.141434,430.661072 176.963440,428.507935 
z"/>
    <path fill="#F4652F" opacity="1.000000" stroke="none"
          d="
M115.020401,397.452911 
	C118.442169,394.816315 121.865616,392.665619 125.264816,390.477264 
	C126.926292,389.407623 128.542679,388.267944 130.504852,387.076721 
	C130.887375,400.317841 130.944504,413.642151 131.021881,427.427582 
	C128.849945,435.269653 121.894234,437.561890 117.017883,442.075470 
	C116.349289,441.902863 115.680687,441.730286 115.012093,441.557709 
	C115.012093,427.012909 115.012093,412.468140 115.020401,397.452911 
z"/>
    <path fill="#F67A33" opacity="1.000000" stroke="none"
          d="
M130.898682,337.530029 
	C126.854614,340.867676 122.882477,343.745911 118.901985,346.612579 
	C117.840569,347.377045 116.753548,348.105927 115.342407,348.925598 
	C115.005089,334.762543 114.844566,320.521423 115.159920,306.290924 
	C115.212059,303.938385 116.852821,301.120300 118.622963,299.412292 
	C122.158913,296.000519 126.293411,293.209045 130.506104,290.078308 
	C130.876816,305.685577 130.922134,321.375977 130.898682,337.530029 
z"/>
    <path fill="#EF3428" opacity="1.000000" stroke="none"
          d="
M316.998932,428.164795 
	C330.083008,428.164795 343.167114,428.164795 357.441010,428.164795 
	C352.197845,421.699951 347.706055,416.161591 343.498474,410.183685 
	C347.870422,406.125061 351.958191,402.505951 356.045990,398.886841 
	C362.971741,407.038422 369.897491,415.190002 376.966431,423.646851 
	C369.793396,430.697662 362.477142,437.443207 355.079834,444.511505 
	C337.641907,444.880859 320.285095,444.927460 302.545288,444.581390 
	C304.185608,442.076721 306.242126,439.995392 308.224426,437.845642 
	C311.176758,434.644043 314.076691,431.394135 316.998932,428.164795 
z"/>
    <path fill="#F03D29" opacity="1.000000" stroke="none"
          d="
M355.902740,398.573608 
	C351.958191,402.505951 347.870422,406.125061 343.477417,409.843018 
	C337.443756,400.551025 331.715332,391.160126 326.280823,381.328064 
	C330.732635,377.222748 334.890503,373.558594 339.048340,369.894440 
	C344.618744,379.349731 350.189117,388.805054 355.902740,398.573608 
z"/>
    <path fill="#F1492B" opacity="1.000000" stroke="none"
          d="
M339.014771,369.528259 
	C334.890503,373.558594 330.732635,377.222748 326.229553,380.963684 
	C321.915527,371.300903 317.946747,361.561340 314.290253,351.403046 
	C319.084045,347.617065 323.565521,344.249817 328.046967,340.882568 
	C331.691711,350.309082 335.336456,359.735596 339.014771,369.528259 
z"/>
    <path fill="#F2512C" opacity="1.000000" stroke="none"
          d="
M328.023895,340.482880 
	C323.565521,344.249817 319.084045,347.617065 314.233063,351.012421 
	C311.568726,341.326599 309.273895,331.612640 307.286499,321.397827 
	C309.266632,319.925293 310.971161,319.004120 312.605072,317.971222 
	C315.701965,316.013397 318.758362,313.991547 321.831604,311.996307 
	C323.217560,318.561157 324.581207,325.130798 325.999878,331.688568 
	C326.607971,334.499512 327.330353,337.285736 328.023895,340.482880 
z"/>
    <path fill="#F35A2E" opacity="1.000000" stroke="none"
          d="
M321.899780,311.546509 
	C318.758362,313.991547 315.701965,316.013397 312.605072,317.971222 
	C310.971161,319.004120 309.266632,319.925293 307.239685,320.967407 
	C305.932343,311.331146 304.979309,301.624390 304.096802,291.457642 
	C307.278320,288.998138 310.372772,286.972198 313.506104,285.008209 
	C315.682526,283.643982 317.912384,282.364960 320.475220,281.022827 
	C321.210663,291.030731 321.589294,301.063751 321.899780,311.546509 
z"/>
    <path fill="#F03D29" opacity="1.000000" stroke="none"
          d="
M316.534546,428.097473 
	C314.076691,431.394135 311.176758,434.644043 308.224426,437.845642 
	C306.242126,439.995392 304.185608,442.076721 302.081177,444.511871 
	C285.309418,444.881531 268.618713,444.928009 251.545074,444.581329 
	C252.749420,442.318878 254.211624,440.322815 255.950180,438.606689 
	C259.555328,435.047943 263.307251,431.637909 266.998840,428.166748 
	C283.355957,428.121246 299.713074,428.075684 316.534546,428.097473 
z"/>
    <path fill="#F1492B" opacity="1.000000" stroke="none"
          d="
M266.534424,428.099487 
	C263.307251,431.637909 259.555328,435.047943 255.950180,438.606689 
	C254.211624,440.322815 252.749420,442.318878 251.081100,444.510925 
	C235.642059,444.880585 220.284027,444.927490 204.461868,444.903900 
	C208.161087,440.667603 212.330536,436.507904 216.483734,432.332062 
	C217.625275,431.184326 218.718323,429.988403 219.915253,428.491333 
	C235.354599,428.122742 250.712311,428.077484 266.534424,428.099487 
z"/>
    <path fill="#F35A2E" opacity="1.000000" stroke="none"
          d="
M191.000595,406.836639 
	C180.217117,406.836639 169.433655,406.836639 158.323547,406.836639 
	C158.323547,401.322632 158.323547,395.942047 158.323547,390.029388 
	C174.925888,390.029388 191.498795,390.029388 208.420410,390.405029 
	C207.200500,391.957642 205.512756,393.006592 204.085434,394.335266 
	C199.670517,398.445129 195.354813,402.661591 191.000595,406.836639 
z"/>
    <path fill="#F2512C" opacity="1.000000" stroke="none"
          d="
M191.464386,406.907166 
	C195.354813,402.661591 199.670517,398.445129 204.085434,394.335266 
	C205.512756,393.006592 207.200500,391.957642 208.884689,390.473206 
	C218.117798,390.165680 227.235352,390.165680 236.675873,390.165680 
	C236.675873,395.647552 236.675873,401.026703 236.675873,406.977722 
	C221.729477,406.977722 206.828842,406.977722 191.464386,406.907166 
z"/>
</svg>